<svg width="42" height="34" viewBox="0 0 42 34" fill="none" xmlns="http://www.w3.org/2000/svg">
<path d="M33 5H37M41 5H37M37 5V1M37 5V9M1 15V2.2C1 1.88174 1.12643 1.57652 1.35147 1.35147C1.57652 1.12643 1.88174 1 2.2 1H14.556C14.842 0.999978 15.1186 1.10211 15.336 1.288L21.664 6.712C21.8814 6.89789 22.158 7.00002 22.444 7H25M39.8 33H2.2C1.88174 33 1.57652 32.8736 1.35147 32.6485C1.12643 32.4235 1 32.1183 1 31.8V15H39.8C39.9576 15 40.1136 15.031 40.2592 15.0913C40.4048 15.1517 40.5371 15.24 40.6485 15.3515C40.76 15.4629 40.8484 15.5952 40.9087 15.7408C40.969 15.8864 41 16.0424 41 16.2V31.8C41 31.9576 40.969 32.1136 40.9087 32.2592C40.8484 32.4048 40.76 32.5371 40.6485 32.6485C40.5371 32.76 40.4048 32.8484 40.2592 32.9087C40.1136 32.969 39.9576 33 39.8 33V33Z" stroke="#160647" stroke-width="1.5" stroke-linecap="round" stroke-linejoin="round"/>
</svg>
